<svg id="Capa_1" data-name="Capa 1" xmlns="http://www.w3.org/2000/svg" xmlns:xlink="http://www.w3.org/1999/xlink" viewBox="0 0 80.14 70.08"><defs><linearGradient id="Degradado_sin_nombre_12" x1="12.9" y1="0.84" x2="49.76" y2="62.56" gradientUnits="userSpaceOnUse"><stop offset="0.52" stop-color="#768589"></stop><stop offset="0.6" stop-color="#7c8a8e"></stop><stop offset="0.71" stop-color="#8c989c"></stop><stop offset="0.84" stop-color="#a6b0b2"></stop><stop offset="0.97" stop-color="#cbd1d2"></stop><stop offset="1" stop-color="#d3d8d9"></stop></linearGradient><linearGradient id="Degradado_sin_nombre_10" x1="40.05" y1="57.41" x2="60.05" y2="19.7" gradientUnits="userSpaceOnUse"><stop offset="0.45" stop-color="#768589"></stop><stop offset="0.55" stop-color="#7e8c90"></stop><stop offset="0.7" stop-color="#95a1a4"></stop><stop offset="0.89" stop-color="#bac2c3"></stop><stop offset="1" stop-color="#d3d8d9"></stop></linearGradient><linearGradient id="Degradado_sin_nombre_10-2" x1="54.41" y1="2.25" x2="79.27" y2="21.11" xlink:href="#Degradado_sin_nombre_10"></linearGradient></defs><path d="M41,41.1h0C33.53,29,22.12,10.72,22.12,10.72h0a10.33,10.33,0,0,0-18,10.08L29.3,61.55h0a10.37,10.37,0,0,0,18.08,0h0L58.84,43C48.24,52.62,41,41.1,41,41.1Z" fill="url(#Degradado_sin_nombre_12)"></path><path d="M61.31,16.84a15.21,15.21,0,0,1-3.16-1.79,6.73,6.73,0,0,1-2.82-4.77,3.82,3.82,0,0,1,0-.76,12.43,12.43,0,0,0-.79,1.2h0s-9,14.38-16.22,26.06c.93,1.49,1.83,2.95,2.69,4.32,0,0,7.21,11.52,17.81,1.94L69.2,26.29,69,25.17C67.9,19.93,64.4,18.29,61.31,16.84Z" fill="url(#Degradado_sin_nombre_10)"></path><path d="M72.65,11.92a10.74,10.74,0,0,0-.75-1.87A8.58,8.58,0,0,0,70.37,8c-1.81-1.8-4.25-2.68-7.48-2.68a6.15,6.15,0,0,0-4.13,1.2,3.47,3.47,0,0,0-1.07,2.47,4.72,4.72,0,0,0,2,3.2,13.44,13.44,0,0,0,2.71,1.5c2.73,1.28,6.31,3,8.11,7.36l1.23-2.13A8.87,8.87,0,0,0,72.65,11.92Z" fill="url(#Degradado_sin_nombre_10-2)"></path></svg>