<svg id="Capa_1" data-name="Capa 1" xmlns="http://www.w3.org/2000/svg" xmlns:xlink="http://www.w3.org/1999/xlink" viewBox="0 0 42.29 39.14"><defs><linearGradient id="Degradado_sin_nombre_11" x1="-19.05" y1="8.06" x2="11.16" y2="8.06" gradientTransform="matrix(1, 0.01, -0.01, 1, 24.15, 9.16)" gradientUnits="userSpaceOnUse"><stop offset="0.22" stop-color="#b33eda"></stop><stop offset="1" stop-color="#ff58e9"></stop></linearGradient></defs><path d="M28.56,31.43l-7.92-5.75a.8.8,0,0,0-.93,0L11.8,31.43a.79.79,0,0,1-1.22-.89l3-9.3a.79.79,0,0,0-.29-.89L5.4,14.6a.79.79,0,0,1,.47-1.43h9.78a.78.78,0,0,0,.75-.55l3-9.3a.79.79,0,0,1,1.51,0l3,9.3a.8.8,0,0,0,.76.55h9.78A.79.79,0,0,1,35,14.6L27,20.35a.8.8,0,0,0-.29.89l3,9.3A.8.8,0,0,1,28.56,31.43Z" fill-rule="evenodd" fill="url(#Degradado_sin_nombre_11)"></path></svg>